# xmcd
#
# Track frame offsets:
#	150
#	9815
#	22220
#	40237
#	52190
#	66850
#	82265
#	94325
#	108890
#	119645
#
# Disc length: 1767 seconds
#
# Revision: 1
# Processed by: cddbd v1.5.2PL0 Copyright (c) Steve Scherf et al.
# Submitted via: CDmax 2.0
#
DISCID=8906e50a
DTITLE=Louvin Brothers - I Don't Believe You've Met My Baby
DYEAR=2002
DGENRE=Country
TTITLE0=I Don't Believe You've Met My Baby
TTITLE1=Alabama
TTITLE2=Lonely Mound Of Clay
TTITLE3=When I Loved You
TTITLE4=I'll Be All Smiles Tonight
TTITLE5=Blues Stay Away From Me
TTITLE6=The Price Of The Bottle
TTITLE7=Mary Of The Wild Moor
TTITLE8=She Will Get Lonesome
TTITLE9=Are You Teasing Me
EXTD=
EXTT0=
EXTT1=
EXTT2=
EXTT3=
EXTT4=
EXTT5=
EXTT6=
EXTT7=
EXTT8=
EXTT9=
PLAYORDER=
